# xmcd CD database file
#
# Track frame offsets:
#	150
#	18235
#	46006
#	67086
#	77679
#	98260
#	114993
#	133211
#	150348
#	170988
#	181279
#	205624
#	231783
#	245162
#
# Disc length: 3505 seconds
#
# Revision: 7
# Processed by: cddbd v1.4PL0 Copyright (c) Steve Scherf et al.
# Submitted via: NeoAudio 9.9.9
#
DISCID=ae0daf0e
DTITLE=Mike Oldfield - Tr3s Lunas
DYEAR=2002
DGENRE=New Age
TTITLE0=Misty
TTITLE1=No mans land
TTITLE2=Return to the origin
TTITLE3=Landfall
TTITLE4=Viper
TTITLE5=Turtle island
TTITLE6=To be free
TTITLE7=Firefly
TTITLE8=Tr3s Lunas
TTITLE9=Daydream
TTITLE10=Thou Art in heaven
TTITLE11=Sirius
TTITLE12=No mans land (reprise bonus track)
TTITLE13=To be free (radio edit)
EXTD=YEAR: 2002
EXTT0=
EXTT1=
EXTT2=
EXTT3=
EXTT4=
EXTT5=
EXTT6=
EXTT7=
EXTT8=
EXTT9=
EXTT10=
EXTT11=
EXTT12=
EXTT13=
PLAYORDER=
